<svg xmlns="http://www.w3.org/2000/svg" width="500" height="500"><path fill="#121212" d="M269.188 75.5c9.022 7.269 12.878 18.898 14.09 30.055.379 9.507-2.173 18.476-7.192 26.507-1.126 2.01-1.735 3.664-2.086 5.938.781 2.114.781 2.114 2.578 2.637 2.714.407 5.32.346 8.058.247 7.097-.24 12.405-.09 18.364 4.116 2.974 2.871 3.987 6.436 5.254 10.293.618 1.91.618 1.91 2.746 2.707 1.633.119 3.271.177 4.909.205l3.093.06 3.35.051 3.421.063q5.426.097 10.852.184l7.344.13q9.015.162 18.031.307l-.07-3.945-.055-5.18c-.017-.856-.034-1.712-.05-2.594-.05-6.428.64-11.046 4.363-16.469 4.03-4.03 7.625-5.534 13.25-6.25 6.867.844 12.197 4.046 16.562 9.438 2.34 5.297 2.236 10.203 2.125 15.875l-.027 2.664A930 930 0 0 1 398 159h16c1.183 2.366 1.134 3.868 1.125 6.5l.008 2.406C415 170 415 170 414 172h-16l.105 3.691q.043 2.436.082 4.871l.077 2.424c.082 6.686-1.411 10.95-4.889 16.702-3.761 3.662-8.184 6.065-13.492 6.476-5.067-.414-8.77-2.237-12.883-5.164-7.355-9.29-5-15.895-5-29h-42l1 3c.52 5.811-.349 11.19-1.488 16.871-.98 5.996-1.201 12.067-1.512 18.129l3.508-.14q2.308-.057 4.617-.11l2.305-.102c5.373-.092 8.285.824 12.57 4.352 5.33 5.477 6.246 11.64 6.275 19.078l.015 2.028c.014 2.191.013 4.382.01 6.574l.014 4.613q.01 4.824.002 9.648c-.006 4.1.01 8.201.034 12.302.015 3.174.016 6.349.013 9.523q0 2.266.015 4.533c.048 8.06-.073 15.218-3.378 22.701l-2 2c-.311 2.254-.311 2.254-.272 4.903l-.03 3.14-.001 3.46-.026 3.63q-.026 3.914-.037 7.827a3398 3398 0 0 1-.064 12.364q-.061 9.772-.103 19.546-.076 17.512-.185 35.026-.037 6.151-.06 12.303-.02 4.714-.048 9.428l-.008 3.465-.021 3.132-.012 2.738C341 430 341 430 340 431c-2.52.088-5.014.115-7.535.098l-2.283-.005c-2.415-.005-4.83-.018-7.245-.03q-2.45-.009-4.9-.014-6.018-.017-12.037-.049c-1.148-2.296-1.308-4.077-1.562-6.625l-.254-2.477L304 420l-1.937 1.875c-3.765 2.612-7.435 4.117-12.063 4.125-4.851-1.873-8.008-4.629-11.625-8.312-.92-.925-1.84-1.849-2.79-2.801-3.297-3.682-6.014-7.174-7.585-11.887-20.175-2.597-20.175-2.597-38.531 2.684-2.836 3.062-4.621 6.586-6.469 10.316-2.81 3.833-5.541 7.133-10 9-7.13.68-11.037-1.025-17-5l-.184 1.898-.254 2.477c-.08.812-.162 1.624-.246 2.46C195 429 195 429 194 431q-7.236.037-14.471.055-2.464.008-4.927.02-3.533.017-7.067.023l-2.238.015c-1.766 0-3.532-.051-5.297-.113-1.637-1.637-1.128-3.491-1.131-5.75l-.012-3.114.001-3.445-.01-3.607q-.012-3.892-.017-7.785-.01-6.159-.041-12.318l-.029-6.347c-.042-9.562-.075-19.123-.087-28.685q-.011-9.668-.07-19.334c-.019-3.41-.031-6.821-.026-10.232.002-3.81-.02-7.618-.048-11.427l.02-3.415c-.075-6.283-.585-9.651-4.55-14.541-1.414-3.638-1.123-7.483-1.085-11.335l.01-2.22q.02-3.624.055-7.25l.022-2.507q.055-6.566.13-13.13c.05-4.516.076-9.03.097-13.545.02-3.478.058-6.956.1-10.434q.026-2.496.032-4.992c.007-2.332.04-4.662.077-6.993l-.01-2.069c.152-6.366 3.002-9.84 7.205-14.35 3.993-3.14 8.342-2.954 13.242-2.988l2.664-.076c2.153-.058 4.307-.088 6.461-.111q-.465-4.063-.937-8.125l-.264-2.305-.264-2.265-.238-2.063c-.365-2.757-.84-5.499-1.297-8.242v-13l-42-1v20c-2.045 5.454-3.542 8.349-8.312 11.5-6.017 2.447-10.197 3.386-16.375.938-5.161-2.59-8.121-5.664-10.434-11.047-1.123-4.334-1.096-8.314-1.004-12.766l.027-2.52c.024-2.035.06-4.07.098-6.105l-3.465.035-4.472.028-2.288.025A183 183 0 0 1 86 172c-1-1-1-1-1.133-3.469l.008-3.031-.008-3.031C85 160 85 160 86 159c2.697-.073 5.367-.092 8.063-.062l2.298.013q2.82.02 5.639.049l-.105-3.656q-.043-2.423-.082-4.844l-.077-2.398c-.08-6.582.976-12.02 4.955-17.38 4.41-3.913 7.885-5.736 13.84-5.929 4.05.34 6.84 1.328 10.469 3.207 1.5 2.188 1.5 2.188 2 4h2c3 7 3 7 3 27l54-1v-2h2l-.375-2.562c.457-4.19 1.815-5.796 4.477-8.922 4.967-3.966 10.5-3.751 16.523-3.578 6.251.167 6.251.167 12.375-.938-1.784-5.892-4.556-11.049-7.441-16.465-4.518-10.247-3.223-22.221.441-32.535 4.436-9.798 10.227-17.012 20.438-20.937 10.65-2.959 19.632-.501 28.75 5.437M206 155c.293 5.86 3.034 9.855 7 14h2c.307 25.62.307 25.62-2 37a71 71 0 0 0-.062 4.313L213 214l-12-2v-10h-5c-.574 12.842-.574 12.842 3 25l.863 1.83c4.901 10.473 4.901 10.473 11.137 20.17l3 1c3.43-3.159 5.525-5.575 7-10l1.038-1.839c1.142-2.566 1.197-4.376 1.173-7.179l-.01-3.029-.04-3.27-.017-3.41c-.017-3.612-.048-7.224-.082-10.835-.212-27.148-.212-27.148.372-38.34l.12-2.3c.177-2.942.441-5.775 1.02-8.667.6-2.155.6-2.155-.199-4.318-1.932-2.548-3.262-3.018-6.375-3.813-6.348-.555-6.348-.555-12 2m71 1c-.735 3.113-.735 3.113-.583 6.76l-.008 2.07c-.001 2.265.033 4.527.068 6.791q.01 2.372.014 4.744c.013 4.173.058 8.345.107 12.518.036 3.375.049 6.75.06 10.124q.025 6.089.069 12.177l.014 2.305c-1.012 18.5-1.012 18.5 6.259 34.511 2.625 1.558 2.625 1.558 5 2v-2h4l.848-2.133 1.214-2.992 1.36-3.352C297 236 297 236 298.89 232.79c6.027-10.315 5.85-19.099 5.109-30.789h-5l1 10-12 2-.184-2.816-.253-3.746-.247-3.692c-.198-2.35-.462-4.696-.82-7.027-.653-4.892-.876-9.726-.996-14.656l-.164-2.881c-.106-5.47.396-8.51 4.094-12.67l1.898-1.834c2.343-2.352 3.226-4.406 3.672-7.678-1.094-2.235-1.094-2.235-3-4-2.33-.595-2.33-.595-4.875-.437l-2.555.003c-3.242.547-4.99 1.376-7.57 3.434m-111 69c-.597 3.185-.597 3.185-.486 6.902l-.011 2.115c-.008 2.307.014 4.613.036 6.92l.003 4.809q.006 5.04.046 10.077c.034 4.308.042 8.615.04 12.923q.003 4.965.026 9.93.01 2.382.012 4.764.01 3.329.043 6.658l.024 3.828c.034 3.245.034 3.245 2.267 6.074 2.934.458 2.934.458 6.453.381l2.03.014c2.256.012 4.511.003 6.767-.007q2.42.006 4.838.016c4.389.014 8.777.008 13.165-.001 4.585-.008 9.17 0 13.755.004q11.55.007 23.101-.016a7255 7255 0 0 1 26.738.006q11.463.02 22.925.007 6.852-.008 13.706.005 6.44.013 12.883-.015 2.368-.006 4.738.004c2.15.008 4.298-.002 6.448-.017l3.651-.003L332 300c2.116-3.173 2.28-4.125 2.414-7.785l.118-2.998.093-3.28.113-3.42c.286-9.796.366-19.592.387-29.392l.008-2.17c1.182-14.55 1.182-14.55-2.452-27.76-2.823-2.006-6.045-1.504-9.368-1.382l-2.127.04c-1.73.036-3.458.09-5.186.147l-.77 2.738-1.043 3.575-1.019 3.55c-1.16 3.113-1.915 3.913-4.168 6.137-1.092 1.745-1.092 1.745-2.008 3.652l-1.05 2.104-1.067 2.182-1.09 2.17c-1.628 3.289-2.987 6.293-3.785 9.892l-1.687.375c-2.352.563-2.352.563-4.563 1.688-5.173 1.763-10.493 1.251-15.75-.063v-2l-2.375-1.375c-2.749-1.702-3.504-2.67-4.625-5.625h-2q-.47-2.312-.937-4.625l-.528-2.602c-1.422-7.368-1.95-14.162-2.535-21.773h-29l-.75 8.375c-1.022 9.907-3.53 17.453-9.25 25.625v2l-1.75.375c-2.25.533-2.25.533-4.117 1.648-4.494 2.058-9.574 1.252-14.32.414-6.772-3.46-9.53-9.36-11.954-16.3-.763-2.303-.763-2.303-2.859-4.137a155 155 0 0 1-2.562-6.875l-1.317-3.742c-.816-2.462-1.556-4.857-2.121-7.383-2.417-.081-4.832-.14-7.25-.187l-2.066-.077c-4.274-.062-6.719.114-9.684 3.264m6 87v106h9q.035-14.122.052-28.243.007-6.558.023-13.115.016-6.332.02-12.663.003-2.413.01-4.825.01-3.386.009-6.772l.006-3.89c-.112-3.262-.523-6.288-1.12-9.492a81 81 0 0 1-.125-4.687l-.008-2.262C180 330 180 330 181 327c.07-2.573.094-5.116.063-7.687l-.014-2.127q-.02-2.594-.049-5.186zm26 0c-2.21 5.578-2.21 5.578-2 10q3.873.795 7.75 1.563l2.21.458c3.668.717 6.493 1.241 10.04-.021 1.532-1.963 1.532-1.963 2.688-4.375l1.261-2.398c1.146-2.314 1.146-2.314 2.051-5.227zm32.625 7.313a78 78 0 0 0-2.838 6.666C227 328 227 328 225.266 330.949c-1.591 2.918-2.22 4.719-2.266 8.051 1.727 4.974 4.125 9.35 6.78 13.88 2.008 3.489 3.796 7.083 5.595 10.683l1.009 1.946c4.284 8.415 4.825 15.205 4.616 24.491h18l-.125-4.5c-.227-8.183 2.553-14.982 6.063-22.187l1.052-2.221A125 125 0 0 1 272 350q1.507-3.496 3-7l2-3c-.329-4.406-1.645-7.832-3.625-11.75l-1.414-2.86L270 322l-1.322-2.562c-2.326-3.994-4.082-6.843-8.519-8.497-3.387-.512-6.547-.634-9.971-.566l-3.536.036c-7.765.49-12.167 1.97-16.027 8.901M278 312c3.546 7.79 3.546 7.79 8 13l18-3c-.445-7.168-.445-7.168-2-10zm41 0a1420 1420 0 0 0-.062 6.813l-.036 3.832c-.064 3.351-.064 3.351 1.098 6.355.095 1.956.13 3.916.125 5.875l.008 3.117C320 341 320 341 319.499 343.24c-.607 3.357-.619 6.526-.613 9.938v2.13q.002 3.465.016 6.931l.005 4.822q.006 6.33.024 12.66.014 6.465.02 12.93.016 12.675.049 25.35h9V312zm-126 22c-.553 6.633.061 11.524 4 17 2.148 2.355 4.383 4.567 6.691 6.766 2.76 2.671 5.235 5.524 7.735 8.437 2.087 2.383 4.3 4.592 6.574 6.797 2.496-.781 2.496-.781 5-2 1.51-4.532-.636-7.281-2.625-11.437l-1.043-2.315c-2.123-4.5-4.01-7.513-8.332-10.248l-3-1 .473-1.934.59-2.503.597-2.497L210 337c-2.081-2.081-6.186-1.73-9.062-2.062l-2.3-.276q-2.817-.335-5.638-.662m104.875.875-3.82.492L291 336l-1 2a208 208 0 0 0 2 5v3l-2.687.938c-4.587 2.855-6.002 6.302-8.313 11.062l-1.457 2.707c-1.929 3.575-1.929 3.575-3.543 7.293.752 3.278.752 3.278 4 5h3v-2h2v-2h2c1.469-1.413 1.469-1.413 3-3.312 2.978-3.529 6.08-6.895 9.25-10.25 6.226-6.87 8.145-12.233 8.75-21.438-3.445 0-6.71.42-10.125.875M195 368v22c4.084-.563 4.084-.563 5.75-3.437 1.396-2.387 1.396-2.387 1.25-4.563h2l1-5h-2l-.625-1.687c-1.696-3.145-1.696-3.145-7.375-7.313m106.438 2.375c-2.665 2.272-2.665 2.272-2.438 4.625h-2v2h-2c.612 3.654 2.166 5.86 4.438 8.75l1.87 2.422L303 390h2v-22c-1.46-.113-1.46-.113-3.562 2.375M271 382c.523 2.763 1.109 5.326 2 8h14c.23-2.106.23-2.106-1.437-3.5-3.092-1.81-5.949-2.399-9.442-3.07C274 383 274 383 271 382m-49.437 1.688-2.31.386c-2.986 1.014-2.986 1.014-6.253 5.926h14c2.224-3.702 2.224-3.702 2-7-2.629 0-4.864.215-7.437.688M206 404c-.167 3.583-.167 3.583 0 7l4 1 7-9c-4.153-1.384-7.739-2.261-11 1m77-2q1.402 1.909 2.813 3.813l1.582 2.144A46.6 46.6 0 0 0 292 413c1.707-1.036 1.707-1.036 3-3-.076-3.615-.076-3.615-1-7-2.405-1.203-3.95-1.1-6.625-1.062l-2.477.027z"/><path fill="#3e47ca" d="M260.219 83.746c2.875 2.024 4.91 4.325 6.781 7.254l1.191 1.719c3.114 5.467 3.197 10.95 3.247 17.094l.03 2.535c-.065 4.543-.23 7.218-3.468 10.652l-1.187 3.438c-2.412 4.739-4.784 6.83-9.813 8.562-6.453.924-12.834 1.215-18.625-2.125-5.515-4.198-8.812-10.194-10.375-16.875-1.208-10.274.959-19.978 6.813-28.562 6.594-7.93 16.785-8.6 25.406-3.692"/><path fill="#3e47cb" d="M234 170h33v41h-33z"/><path fill="#f1f0f0" d="M120.5 136.625c2.995.45 3.68 1.005 5.5 3.375.381 2.239.381 2.239.388 4.883l.029 3.003-.019 3.239.01 3.329q.002 3.484-.017 6.97c-.016 3.562 0 7.123.02 10.685q-.004 3.383-.013 6.766l.019 3.239-.029 3.003-.007 2.644c-.464 2.729-1.164 3.62-3.381 5.239-3.062.375-3.062.375-6 0-2.159-3.238-2.255-4.144-2.275-7.883l-.029-3.003.003-3.239-.013-3.329q-.008-3.484-.002-6.97c.003-3.562-.02-7.123-.045-10.685q-.004-3.383-.002-6.766l-.028-3.239.019-3.003-.002-2.644c.616-3.687 2.24-5.069 5.874-5.614"/><path fill="#f1f1f1" d="M380.625 137.125C383 138 383 138 385 140c.254 2.119.254 2.119.259 4.77l.019 3.003-.012 3.254.005 3.333q.002 3.495-.01 6.988c-.01 3.571 0 7.142.012 10.713q0 3.39-.007 6.779l.012 3.248-.02 3.013-.004 2.654C385 190 385 190 383 193c-3.5.375-3.5.375-7 0-2.139-3.208-2.257-4.081-2.29-7.775l-.04-2.933-.006-3.163-.02-3.254q-.015-3.409-.015-6.817c-.004-3.479-.04-6.956-.078-10.435q-.009-3.31-.012-6.62l-.043-3.156c.045-7.184.045-7.184 2.369-10.543C378 137 378 137 380.625 137.125"/><path fill="#3f48cc" d="m238 143 2.875 1c7.188 2.037 14.143 1.429 21.125-1l1.375 2.438c1.372 2.65 1.372 2.65 3.625 3.562-.344 2.543-.65 4.495-2.125 6.625-6.498 4.765-12.997 5.315-20.875 4.375-4.418-1.313-7.2-2.95-10-6.625-1-2.375-1-2.375-1-4.375a181 181 0 0 1 4-4zm-42 25c2 0 2 0 3.508 1.258 4.97 5.74 5.03 10.526 4.703 17.96L204 190c-4.065 1.355-6.087.637-10-1-2.355-4.3-2.652-9.18-2-14 2.156-5.156 2.156-5.156 4-7m107 0c3 1 3 1 4.75 3.813 2.115 5.237.993 10.736.25 16.187-6.964 3.348-6.964 3.348-11 2-.92-13.24-.92-13.24 1.336-17.555C300 170.563 300 170.563 303 168"/><path fill="#242424" d="M198 311h26v5l-4 1 2-5h-24z"/><path fill="#4a4a4b" d="m292 362 2 4-2.25 1.25c-2.8 1.643-2.8 1.643-4.937 3.938L285 373h-2v-2h2v-2h2l.813-1.812c1.172-2.16 2.38-3.546 4.187-5.188"/><path fill="#636363" d="m230 76 2 1-1.023 1.39c-2.808 3.836-2.808 3.836-5.102 7.985C225 88 225 88 222 89c1.59-5.09 4.745-8.875 8-13"/><path fill="#616161" d="m369 128 2 1-1.242 1.426-1.633 1.887-1.617 1.863c-1.672 1.959-1.672 1.959-3.508 4.824.445-5.04 2.713-7.376 6-11"/><path fill="#2c2c2c" d="M218 311h6v5l-4 1 2-5z"/><path fill="#7e7b7e" d="M220 236c1.414 2.639 2.372 5.071 3 8l-5 3 1-2.687c.912-3.022 1.183-5.197 1-8.313"/><path fill="#545454" d="M269 321h2v2l3 1v6c-2.647-2.647-3.6-5.562-5-9"/><path fill="#404040" d="M341 215a91 91 0 0 1 4 4v2l-4 1c-1.333-2.667-.671-4.167 0-7"/><path fill="#f3f3f3" d="M179 233h7v1h-7z"/><path fill="#efefef" d="m215 246 2 1Z"/></svg>